<?xml version="1.0" encoding="utf-8"?>
<!-- Generator: Adobe Illustrator 24.0.2, SVG Export Plug-In . SVG Version: 6.00 Build 0)  -->
<svg version="1.1" id="Layer_1" xmlns="http://www.w3.org/2000/svg" xmlns:xlink="http://www.w3.org/1999/xlink" x="0px" y="0px"
	 viewBox="0 0 50 50" style="enable-background:new 0 0 50 50;" xml:space="preserve">
<style type="text/css">
	.st0{fill:#FFFFFF;stroke:#000000;stroke-miterlimit:10;}
	.st1{fill:#509B53;}
	.st2{fill:#326436;}
</style>
<path class="st0" d="M9.5,17.5"/>
<path class="st1" d="M40.2,31H9.8C8.81,31,8,30.19,8,29.2V13.8C8,12.81,8.81,12,9.8,12h30.4c0.99,0,1.8,0.81,1.8,1.8v15.4
	C42,30.19,41.19,31,40.2,31z"/>
<polyline class="st2" points="25,22 36,16 27.22,22.38 35,28 26.51,22.91 25,24 25,24 23.26,22.84 15,28 22.33,22.22 13,16 25,22 
	"/>
<path class="st1" d="M22.26,22.18"/>
</svg>
