<?xml version="1.0" encoding="utf-8"?>
<!-- Generator: Adobe Illustrator 24.0.2, SVG Export Plug-In . SVG Version: 6.00 Build 0)  -->
<svg version="1.1" id="Layer_1" xmlns="http://www.w3.org/2000/svg" xmlns:xlink="http://www.w3.org/1999/xlink" x="0px" y="0px"
	 viewBox="0 0 50 50" style="enable-background:new 0 0 50 50;" xml:space="preserve">
<style type="text/css">
	.st0{fill:#FFFFFF;}
	.st1{stroke:#000000;stroke-width:0.75;stroke-miterlimit:10;}
</style>
<g>
	<path class="st0" d="M9.91,49C9.41,49,9,48.59,9,48.08V1.91C9,1.41,9.41,1,9.91,1h35.17C45.59,1,46,1.41,46,1.91v46.17
		c0,0.5-0.41,0.92-0.92,0.92H9.91z"/>
	<path d="M45,2v46H10V2H45 M45.09,0H9.91C8.86,0,8,0.86,8,1.91v46.17C8,49.14,8.86,50,9.91,50h35.17c1.06,0,1.91-0.86,1.91-1.91
		V1.91C47,0.86,46.14,0,45.09,0L45.09,0z"/>
</g>
<g>
	<path d="M19.7,11.5c-0.88,0-1.6-0.8-1.6-1.78s0.72-1.78,1.6-1.78c0.88,0,1.6,0.8,1.6,1.78S20.58,11.5,19.7,11.5z"/>
	<path d="M19.7,8.94c0.33,0,0.6,0.36,0.6,0.78s-0.27,0.78-0.6,0.78s-0.6-0.36-0.6-0.78S19.37,8.94,19.7,8.94 M19.7,6.94
		c-1.44,0-2.6,1.24-2.6,2.78s1.16,2.78,2.6,2.78s2.6-1.24,2.6-2.78S21.14,6.94,19.7,6.94L19.7,6.94z"/>
</g>
<path class="st1" d="M14.5,16.95v3.19h11.05v-3.19l-0.12-0.33C23.69,11.88,15.86,12.12,14.5,16.95L14.5,16.95z"/>
<g>
	<rect x="29.8" y="7.94" class="st0" width="11" height="0.78"/>
	<polygon points="41.8,6.94 28.8,6.94 28.8,9.72 41.8,9.72 41.8,6.94 	"/>
</g>
<g>
	<rect x="29.8" y="13.5" class="st0" width="11" height="0.78"/>
	<polygon points="41.8,12.5 28.8,12.5 28.8,15.28 41.8,15.28 41.8,12.5 	"/>
</g>
<g>
	<rect x="29.8" y="19.06" class="st0" width="11" height="0.78"/>
	<polygon points="41.8,18.06 28.8,18.06 28.8,20.83 41.8,20.83 41.8,18.06 	"/>
</g>
<g>
	<rect x="14.2" y="24.61" class="st0" width="26.6" height="0.78"/>
	<polygon points="41.8,23.61 13.2,23.61 13.2,26.39 41.8,26.39 41.8,23.61 	"/>
</g>
<g>
	<rect x="14.2" y="30.17" class="st0" width="26.6" height="0.78"/>
	<polygon points="41.8,29.17 13.2,29.17 13.2,31.94 41.8,31.94 41.8,29.17 	"/>
</g>
<g>
	<rect x="14.2" y="35.72" class="st0" width="26.6" height="0.78"/>
	<polygon points="41.8,34.72 13.2,34.72 13.2,37.5 41.8,37.5 41.8,34.72 	"/>
</g>
<g>
	<rect x="14.2" y="41.28" class="st0" width="26.6" height="0.78"/>
	<polygon points="41.8,40.28 13.2,40.28 13.2,43.06 41.8,43.06 41.8,40.28 	"/>
</g>
</svg>
