<?xml version="1.0" encoding="utf-8"?>
<!-- Generator: Adobe Illustrator 24.0.2, SVG Export Plug-In . SVG Version: 6.00 Build 0)  -->
<svg version="1.1" id="Layer_1" xmlns="http://www.w3.org/2000/svg" xmlns:xlink="http://www.w3.org/1999/xlink" x="0px" y="0px"
	 viewBox="0 0 750 429" style="enable-background:new 0 0 750 429;" xml:space="preserve">
<style type="text/css">
	.st0{fill:#326436;}
	.st1{fill:#509B53;}
	.st2{fill:#326436;stroke:#000000;stroke-width:13;stroke-miterlimit:10;}
	.st3{fill:#FFFFFF;}
	.st4{font-family:'BookAntiqua-Bold';}
	.st5{font-size:57.9639px;}
	.st6{fill:none;stroke:#FFFFFF;stroke-width:2;stroke-miterlimit:10;}
</style>
<path class="st0" d="M481.11,229.63L143.04,559.75c-15.22,14.86-39.9,14.86-55.12,0l-333.5-325.66c-15.22-14.86-15.22-38.96,0-53.83
	L92.48-149.85c15.22-14.86,39.9-14.86,55.12,0l333.5,325.66C496.33,190.67,496.33,214.77,481.11,229.63z"/>
<path class="st1" d="M498.78,712.78l-203.9-203.9c-13.74-13.74-13.74-36.01,0-49.75L511.3,242.7c13.74-13.74,36.01-13.74,49.75,0
	l203.9,203.9c13.74,13.74,13.74,36.01,0,49.75L548.52,712.78C534.78,726.51,512.51,726.51,498.78,712.78z"/>
<rect x="495.19" y="30.25" class="st2" width="215.81" height="101.44"/>
<text transform="matrix(0.9929 0 0 1 524.8057 99.5264)" class="st3 st4 st5">C R N</text>
<rect x="502" y="36.5" class="st6" width="202.5" height="89"/>
</svg>
